M48
INCH
T16C0.122
T15C0.126
T14C0.037
T13C0.035
T12C0.042
T11C0.039
%
T13
G05
X037000Y005120
X035000Y005120
T14
X035047Y002854
X035047Y001594
X036031Y001594
X036031Y002854
T11
X004500Y011620
X001500Y011620
X001500Y010620
X004500Y010620
X007579Y002083
X007579Y001083
X038000Y009370
X038000Y008370
X038000Y010620
X038000Y011620
X038000Y007370
X038000Y006370
X035000Y009370
X035000Y008370
X035000Y007370
X030217Y003150
X030217Y001772
X033250Y005370
X031750Y005370
X035000Y006370
X033250Y008370
X035000Y010620
X035000Y011620
X031750Y008370
T12
X002000Y008370
X003000Y008370
X004000Y008370
X001500Y007120
X001500Y006120
X001500Y005120
X004500Y007120
X004500Y006120
X004500Y005120
T16
X025787Y024016
X014075Y023819
T15
X001575Y037795
X037795Y037795
M30
