G04 start of page 2 for group 9 layer_idx 9 *
G04 Title: (unknown), bottom_mask *
G04 Creator: pcb-rnd 3.1.5-dev *
G04 CreationDate: 2024-03-24 10:39:21 UTC *
G04 For: STEM4ukraine *
G04 Format: Gerber/RS-274X *
G04 PCB-Dimensions: 393701 393701 *
G04 PCB-Coordinate-Origin: lower left *
%MOIN*%
%FSLAX25Y25*%
%LNBOTTOM_MASK_NONE_9*%
%ADD56C,0.0100*%
%ADD55C,0.0887*%
%ADD54C,0.1595*%
%ADD53C,0.0790*%
%ADD52C,0.0780*%
%ADD51C,0.0860*%
%ADD50C,0.0001*%
G54D50*G36*
X49300Y111901D02*X40700D01*
Y120501D01*
X49300D01*
Y111901D01*
G37*
G54D51*X15000Y116201D03*
G54D50*G36*
X10700Y110501D02*X19300D01*
Y101901D01*
X10700D01*
Y110501D01*
G37*
G54D51*X45000Y106201D03*
G54D50*G36*
X23900Y79801D02*X16100D01*
Y87601D01*
X23900D01*
Y79801D01*
G37*
G54D52*X30000Y83701D03*
X40000D03*
G54D50*G36*
X11100Y67301D02*Y75101D01*
X18900D01*
Y67301D01*
X11100D01*
G37*
G54D52*X15000Y61201D03*
Y51201D03*
G54D50*G36*
X41100Y67301D02*Y75101D01*
X48900D01*
Y67301D01*
X41100D01*
G37*
G54D52*X45000Y61201D03*
Y51201D03*
G54D50*G36*
X80087Y16527D02*X71487D01*
Y25127D01*
X80087D01*
Y16527D01*
G37*
G54D53*X47835Y37205D02*X39173D01*
X29724Y14370D02*Y23031D01*
X54134Y14370D02*Y23031D01*
G54D51*X75787Y10827D03*
G54D50*G36*
X384300Y89401D02*X375700D01*
Y98001D01*
X384300D01*
Y89401D01*
G37*
G54D51*X380000Y83701D03*
Y106201D03*
Y116201D03*
Y73701D03*
Y63701D03*
X370000Y51201D03*
G54D54*X379094Y19685D02*Y18110D01*
G54D51*X350000Y93701D03*
Y83701D03*
Y73701D03*
G54D50*G36*
X306465Y35796D02*Y27196D01*
X297865D01*
Y35796D01*
X306465D01*
G37*
G54D51*X302165Y17717D03*
G54D50*G36*
X328200Y49401D02*Y58001D01*
X336800D01*
Y49401D01*
X328200D01*
G37*
G54D51*X317500Y53701D03*
X350000Y63701D03*
Y51201D03*
G54D55*X350472Y28543D03*
Y15945D03*
X360315D03*
Y28543D03*
G54D54*X331693Y19685D02*Y18110D01*
G54D51*X332500Y83701D03*
G54D50*G36*
X345700Y110501D02*X354300D01*
Y101901D01*
X345700D01*
Y110501D01*
G37*
G36*
Y120501D02*X354300D01*
Y111901D01*
X345700D01*
Y120501D01*
G37*
G36*
X321800Y88001D02*Y79401D01*
X313200D01*
Y88001D01*
X321800D01*
G37*
G54D56*X216540Y248376D02*Y277589D01*
Y248376D02*X214335D01*
X216540Y244439D02*X214335D01*
X210151Y253488D02*X211658Y266211D01*
X220477Y285778D02*Y228691D01*
X207321Y228692D01*
X216540Y232628D02*Y244439D01*
X207681Y232628D02*X216540D01*
X206916Y238332D02*X209094Y238907D01*
X205817Y250258D02*X207753Y266661D01*
X205516Y242077D02*X208024Y242701D01*
X177169Y277589D02*Y248376D01*
X183558Y253488D02*X182051Y266211D01*
X187892Y250258D02*X185956Y266661D01*
X173232Y285778D02*Y228691D01*
X177169Y244439D02*Y232628D01*
X179374Y248376D02*X177169D01*
X179374Y244439D02*X177169D01*
X186028Y232628D02*X177169D01*
X186793Y238332D02*X184615Y238907D01*
X188193Y242077D02*X185685Y242701D01*
X193941Y282850D02*X194571Y265384D01*
X199768Y282850D02*X199138Y265384D01*
X194886Y232628D02*X189965D01*
X186028Y228691D02*X173232D01*
X194886D02*X190398D01*
X203744Y232628D02*X198823D01*
X194886Y228691D02*Y220384D01*
X203311Y228691D02*X198823D01*
Y220384D01*
X173232Y285778D02*G75*G02X185956Y266661I-11811J-21654D01*G01*
X185685Y242701D02*G75*G02X187894Y250244I1327J3707D01*G01*
X179387Y248373D02*G75*G02X183559Y253484I7625J-1965D01*G01*
X184615Y238907D02*G75*G02X179387Y244442I2397J7500D01*G01*
X177173Y277598D02*G75*G02X182044Y266210I-15752J-13474D01*G01*
X220477Y285778D02*G75*G03X207753Y266661I11811J-21654D01*G01*
X214322Y248373D02*G75*G03X210150Y253484I-7625J-1965D01*G01*
X216536Y277598D02*G75*G03X211665Y266210I15752J-13474D01*G01*
X193941Y282850D02*G75*G02X196858Y291626I11772J959D01*G01*
X188178Y242087D02*G75*G03X194576Y265384I-34630J22037D01*G01*
X194886Y232628D02*G75*G03X190593Y237333I-4724J0D01*G01*
X189965Y232628D02*G75*G02X190600Y237331I17717J0D01*G01*
X196852Y212823D02*G75*G03X194608Y215365I-6887J-3817D01*G01*
X196857Y212823D02*G75*G02X199101Y215365I6887J-3817D01*G01*
X198828Y220379D02*G75*G03X203302Y228693I-12800J12249D01*G01*
X194881Y220379D02*G75*G02X190407Y228693I12800J12249D01*G01*
X199101Y215366D02*G75*G03X207321Y228692I-13073J17262D01*G01*
X186028Y232628D02*G75*G02X186793Y238332I21654J0D01*G01*
X194608Y215366D02*G75*G02X186388Y228692I13073J17262D01*G01*
X199768Y282850D02*G75*G03X196851Y291626I-11772J959D01*G01*
X192166Y241054D02*G75*G03X196859Y251969I-38619J23069D01*G01*
X196848Y238134D02*G75*G03X192170Y241053I-6686J-5506D01*G01*
X201543Y241054D02*G75*G02X196850Y251969I38619J23069D01*G01*
X208024Y242701D02*G75*G03X205815Y250244I-1327J3707D01*G01*
X198823Y232628D02*G75*G02X203116Y237333I4724J0D01*G01*
X196861Y238134D02*G75*G02X201539Y241053I6686J-5506D01*G01*
X203744Y232628D02*G75*G03X203109Y237331I-17717J0D01*G01*
X209094Y238907D02*G75*G03X214322Y244442I-2397J7500D01*G01*
X207681Y232628D02*G75*G03X206916Y238332I-21654J0D01*G01*
X205531Y242087D02*G75*G02X199133Y265384I34630J22037D01*G01*
M02*
