G04 start of page 2 for group 10 layer_idx 5 *
G04 Title: (unknown), bottom_silk *
G04 Creator: pcb-rnd 3.1.5-dev *
G04 CreationDate: 2024-03-24 10:39:21 UTC *
G04 For: STEM4ukraine *
G04 Format: Gerber/RS-274X *
G04 PCB-Dimensions: 393701 393701 *
G04 PCB-Coordinate-Origin: lower left *
%MOIN*%
%FSLAX25Y25*%
%LNBOTTOM_SILK_NONE_10*%
%ADD43C,0.0090*%
%ADD42C,0.0072*%
%ADD41C,0.0250*%
%ADD40C,0.0070*%
%ADD39C,0.0180*%
%ADD38C,0.0200*%
%ADD37C,0.0150*%
%ADD36C,0.0100*%
G54D36*X292520Y232283D02*Y248425D01*
X306693Y235433D02*X292520D01*
X304331D02*Y248425D01*
X251362Y244499D02*Y235816D01*
X306693Y235433D02*Y232283D01*
X292520D01*
X294488D02*Y216929D01*
X301969Y232283D02*Y207480D01*
X350000Y106201D02*X357500D01*
Y103701D02*Y108701D01*
X350000Y116201D02*X357500D01*
Y113701D02*Y118701D01*
X385000Y98701D02*X370000D01*
X360000D02*X345000D01*
X372500Y106201D02*X380000D01*
X357500Y103701D02*X372500D01*
Y108701D02*X357500D01*
X372500D02*Y103701D01*
Y118701D02*Y113701D01*
Y116201D02*X380000D01*
X372500Y118701D02*X357500D01*
Y113701D02*X372500D01*
X385000Y98701D02*Y58701D01*
X345000D02*X385000D01*
X345000D02*Y98701D01*
X332500Y76201D02*Y83701D01*
X335000Y61201D02*Y76201D01*
Y61201D02*X330000D01*
Y76201D02*Y61201D01*
X315000Y76201D02*Y61201D01*
X320000D02*Y76201D01*
Y61201D02*X315000D01*
X330000Y76201D02*X335000D01*
X317500Y83701D02*Y76201D01*
X315000D02*X320000D01*
X302165Y8827D02*Y4827D01*
Y44386D02*Y40386D01*
X300165Y42386D02*X304165D01*
G54D37*X358000Y51201D02*X350000D01*
G54D36*X362972Y34685D02*X347972D01*
X342972Y29685D01*
Y9685D01*
G54D38*X331693Y43110D02*Y28622D01*
Y8858D02*Y1378D01*
G54D36*X342972Y9685D02*X367972D01*
G54D38*X379094Y1378D02*X331693D01*
Y43110D02*X379094D01*
Y8858D02*Y1378D01*
G54D37*X370000Y51201D02*X362000D01*
G54D36*X367972Y9685D02*Y29685D01*
X362972Y34685D01*
G54D38*X379094Y43110D02*Y28622D01*
G54D37*X358000Y46201D02*Y56201D01*
G54D36*X332500Y53701D02*Y61201D01*
X317500D02*Y53701D01*
G54D37*X362000Y46201D02*Y56201D01*
G54D36*X109449Y233465D02*Y230315D01*
X107087Y233465D02*Y246457D01*
X104724Y230315D02*Y205512D01*
G54D38*X192156Y94965D02*X184503Y76490D01*
X180086Y78398D01*
X170471Y71921D01*
X201545Y94965D02*X209198Y76490D01*
X224751Y89535D02*X231229Y79920D01*
X222626Y71466D01*
X213125Y78110D01*
X209198Y76490D01*
G54D39*X221598Y24296D02*X216198D01*
X223398Y29696D02*Y26096D01*
X221598Y31496D02*X216198D01*
X228798Y24296D02*X226998Y26096D01*
X223398D02*X221598Y24296D01*
X234198Y31496D02*Y17096D01*
X226998Y29696D02*Y26096D01*
X228798Y24296D02*X234198D01*
Y31496D02*X228798D01*
X226998Y29696D01*
X223398D02*X221598Y31496D01*
X205398Y26096D02*X207198Y24296D01*
X205398Y26096D02*Y29696D01*
X212598Y24296D02*X207198D01*
X212598Y40496D02*Y24296D01*
X207198Y31496D02*X205398Y29696D01*
X207198Y31496D02*X212598D01*
X185598D02*X180198D01*
X187398Y29696D02*X185598Y31496D01*
X187398D02*Y24296D01*
X199998Y27896D02*X192798D01*
G54D38*X170471Y71921D02*X162017Y80524D01*
X168661Y90024D01*
G54D39*X165798Y29696D02*X163998Y31496D01*
X158598D02*X163998D01*
X165798Y26096D02*X163998Y24296D01*
X158598D02*Y40496D01*
X163998Y24296D02*X158598D01*
X165798Y29696D02*Y26096D01*
X169398Y29696D02*X171198Y31496D01*
X169398Y29696D02*Y24296D01*
X174798Y31496D02*X171198D01*
X176598Y29696D02*X174798Y31496D01*
X176598D02*Y24296D01*
G54D38*X168950Y123064D02*X162472Y132678D01*
X171075Y141132D01*
X180575Y134488D01*
X168661Y90024D02*X165267Y98425D01*
X165409Y114724D02*X168950Y123064D01*
X180575Y134488D02*X188976Y137882D01*
X191194Y149261D01*
X203255Y149156D01*
X205275Y137740D01*
X213615Y134200D01*
X223230Y140677D01*
X231684Y132074D01*
X225040Y122574D01*
X228434Y114174D01*
X239812Y111955D01*
X239707Y99894D01*
X228291Y97875D01*
X224751Y89535D01*
X165267Y98425D02*X153889Y100643D01*
X153994Y112704D01*
X165409Y114724D01*
G54D36*X109449Y230315D02*X95276D01*
X80787Y25827D02*X70787D01*
X80787Y15827D02*X70787D01*
X80787Y25827D02*Y5827D01*
X70787D02*X80787D01*
X70787D02*Y25827D01*
Y15827D01*
X55315Y36417D02*X52165D01*
X55315Y27362D02*Y36417D01*
Y984D02*Y10039D01*
X52000Y54201D02*Y68201D01*
X95276Y230315D02*Y246457D01*
X97244Y230315D02*Y214961D01*
X37500Y118701D02*X22500D01*
X45000Y116201D02*X37500D01*
X22500D02*X15000D01*
X37500Y118701D02*Y113701D01*
X22500D02*X37500D01*
X22500D02*Y118701D01*
X15000Y106201D02*X22500D01*
X37500Y108701D02*X22500D01*
X37500Y106201D02*X45000D01*
X37500Y108701D02*Y103701D01*
X22500D02*Y108701D01*
X14370Y984D02*Y36417D01*
X22000Y54201D02*Y68201D01*
X22500Y103701D02*X37500D01*
X34843Y36417D02*X197D01*
Y984D02*X55315D01*
X197D02*Y36417D01*
X37000Y90701D02*X23000D01*
X109449Y233465D02*X95276D01*
X134236Y242530D02*Y233848D01*
X107087Y246457D02*G75*G03X95276Y246457I-5906J0D01*G01*
X37071Y90772D02*G75*G02X22929Y76630I-7071J-7071D01*G01*
X22929Y76630D02*G75*G02X22929Y90772I7071J7071D01*G01*
X22071Y54130D02*G75*G02X7929Y68272I-7071J7071D01*G01*
X7929Y68272D02*G75*G02X22071Y68272I7071J-7071D01*G01*
X134236Y242530D02*G75*G02X147260Y233848I6512J-4341D01*G01*
X147260Y233848D02*G75*G02X134236Y233848I-6512J4341D01*G01*
X251362Y244499D02*G75*G02X264386Y235816I6512J-4341D01*G01*
X264386Y235816D02*G75*G02X251362Y235816I-6512J4341D01*G01*
X52071Y54130D02*G75*G02X37929Y68272I-7071J7071D01*G01*
X37929Y68272D02*G75*G02X52071Y68272I7071J-7071D01*G01*
G54D38*X201545Y94965D02*G75*G03X192156Y117634I-4695J11334D01*G01*
X192156Y117634D02*G75*G03X192156Y94965I4695J-11334D01*G01*
G54D39*X160398Y42296D02*G75*G02X156798Y42296I-1800J0D01*G01*
G75*G02X160398Y42296I1800J0D01*G01*
X214398D02*G75*G02X210798Y42296I-1800J0D01*G01*
G75*G02X214398Y42296I1800J0D01*G01*
X235998Y15296D02*G75*G02X232398Y15296I-1800J0D01*G01*
G75*G02X235998Y15296I1800J0D01*G01*
G54D36*X304331Y248425D02*G75*G03X292520Y248425I-5906J0D01*G01*
X370000Y98701D02*G75*G02X360000Y98701I-5000J0D01*G01*
X302165Y38386D02*G75*G02X302165Y10827I0J-13779D01*G01*
G75*G02X302165Y38386I0J13779D01*G01*
G54D40*X34539Y100969D02*Y96969D01*
X35039Y100969D02*X33039D01*
X32539Y100469D01*
Y99469D01*
X33039Y98969D02*X32539Y99469D01*
X34539Y98969D02*X33039D01*
X31339Y100969D02*Y96969D01*
Y100969D02*X28839Y96969D01*
Y100969D02*Y96969D01*
X27139Y100969D02*Y96969D01*
X27639Y100969D02*X25639D01*
X25139Y100469D01*
Y99469D01*
X25639Y98969D02*X25139Y99469D01*
X27139Y98969D02*X25639D01*
X38189Y94050D02*X36689D01*
X38189Y91850D02*X36189D01*
X38189Y95850D02*Y91850D01*
Y95850D02*X36189D01*
X31389Y91850D02*X29389D01*
X28889Y92350D01*
Y93550D02*Y92350D01*
X29389Y94050D02*X28889Y93550D01*
X30889Y94050D02*X29389D01*
X30889Y95850D02*Y91850D01*
X31389Y95850D02*X29389D01*
X28889Y95350D01*
Y94550D01*
X29389Y94050D02*X28889Y94550D01*
X23389Y91850D02*X22089D01*
X24089Y92550D02*X23389Y91850D01*
X24089Y95150D02*Y92550D01*
Y95150D02*X23389Y95850D01*
X22089D01*
X25546Y53150D02*Y54650D01*
X23346Y53150D02*Y55150D01*
X27346Y53150D02*X23346D01*
X27346D02*Y55150D01*
X23346Y59950D02*Y61950D01*
X23846Y62450D01*
X25046D02*X23846D01*
X25546Y61950D02*X25046Y62450D01*
X25546Y60450D02*Y61950D01*
X27346Y60450D02*X23346D01*
X27346Y59950D02*Y61950D01*
X26846Y62450D01*
X26046D01*
X25546Y61950D02*X26046Y62450D01*
X23346Y67950D02*Y69250D01*
X24046Y67250D02*X23346Y67950D01*
X26646Y67250D02*X24046D01*
X26646D02*X27346Y67950D01*
Y69250D01*
X32465Y56299D02*X28465D01*
X32465D02*X28465Y58799D01*
X32465D02*X28465D01*
X32465Y60499D02*X28465D01*
X32465Y59999D02*Y61999D01*
X31965Y62499D01*
X30965D01*
X30465Y61999D02*X30965Y62499D01*
X30465Y60499D02*Y61999D01*
X32465Y63699D02*X28465D01*
X32465D02*X28465Y66199D01*
X32465D02*X28465D01*
X39000Y50201D02*Y47201D01*
Y50201D02*X38500Y50701D01*
X37500D01*
X37000Y50201D01*
Y47701D01*
X38000Y46701D02*X37000Y47701D01*
X38500Y46701D02*X38000D01*
X39000Y47201D02*X38500Y46701D01*
X38000Y48201D02*X37000Y46701D01*
X35800Y50201D02*X35300Y50701D01*
X34300D01*
X33800Y50201D01*
X34300Y46701D02*X33800Y47201D01*
X35300Y46701D02*X34300D01*
X35800Y47201D02*X35300Y46701D01*
Y48901D02*X34300D01*
X33800Y50201D02*Y49401D01*
Y48401D02*Y47201D01*
Y48401D02*X34300Y48901D01*
X33800Y49401D02*X34300Y48901D01*
X31992Y41937D02*Y37937D01*
X30692Y41937D02*X29992Y41237D01*
Y38637D01*
X30692Y37937D02*X29992Y38637D01*
X32492Y37937D02*X30692D01*
X32492Y41937D02*X30692D01*
X28092Y37937D02*X26792D01*
X28792Y38637D02*X28092Y37937D01*
X28792Y41237D02*Y38637D01*
Y41237D02*X28092Y41937D01*
X26792D01*
X25592Y37937D02*X23592D01*
X21692Y41937D02*X20892D01*
Y38437D01*
X21392Y37937D02*X20892Y38437D01*
X21892Y37937D02*X21392D01*
X22392Y38437D02*X21892Y37937D01*
X22392Y38437D02*Y38937D01*
X19692Y40937D02*Y37937D01*
Y40937D02*X18992Y41937D01*
X17892D01*
X17192Y40937D01*
Y37937D01*
X19692Y39937D02*X17192D01*
X15292Y37937D02*X13992D01*
X15992Y38637D02*X15292Y37937D01*
X15992Y41237D02*Y38637D01*
Y41237D02*X15292Y41937D01*
X13992D01*
X12792D02*Y37937D01*
Y39937D02*X10792Y41937D01*
X12792Y39937D02*X10792Y37937D01*
X36000Y118201D02*X34000D01*
X33500Y117701D01*
Y116701D01*
X34000Y116201D02*X33500Y116701D01*
X35500Y116201D02*X34000D01*
X35500Y118201D02*Y114201D01*
X34700Y116201D02*X33500Y114201D01*
X32300Y118201D02*X30300D01*
X32300D02*Y116201D01*
X31800Y116701D01*
X30800D01*
X30300Y116201D01*
Y114701D01*
X30800Y114201D02*X30300Y114701D01*
X31800Y114201D02*X30800D01*
X32300Y114701D02*X31800Y114201D01*
X36000Y108201D02*X34000D01*
X33500Y107701D01*
Y106701D01*
X34000Y106201D02*X33500Y106701D01*
X35500Y106201D02*X34000D01*
X35500Y108201D02*Y104201D01*
X34700Y106201D02*X33500Y104201D01*
X30800Y108201D02*X30300Y107701D01*
X31800Y108201D02*X30800D01*
X32300Y107701D02*X31800Y108201D01*
X32300Y107701D02*Y104701D01*
X31800Y104201D01*
X30800Y106401D02*X30300Y105901D01*
X32300Y106401D02*X30800D01*
X31800Y104201D02*X30800D01*
X30300Y104701D01*
Y105901D02*Y104701D01*
X46500Y92701D02*Y89701D01*
Y92701D02*X46000Y93201D01*
X45000D01*
X44500Y92701D01*
Y90201D01*
X45500Y89201D02*X44500Y90201D01*
X46000Y89201D02*X45500D01*
X46500Y89701D02*X46000Y89201D01*
X45500Y90701D02*X44500Y89201D01*
X43300Y92401D02*X42500Y93201D01*
Y89201D01*
X43300D02*X41800D01*
X9000Y50201D02*Y47201D01*
Y50201D02*X8500Y50701D01*
X7500D01*
X7000Y50201D01*
Y47701D01*
X8000Y46701D02*X7000Y47701D01*
X8500Y46701D02*X8000D01*
X9000Y47201D02*X8500Y46701D01*
X8000Y48201D02*X7000Y46701D01*
X5800Y50201D02*X5300Y50701D01*
X3800D01*
X3300Y50201D01*
Y49201D01*
X5800Y46701D02*X3300Y49201D01*
X5800Y46701D02*X3300D01*
G54D41*X241850Y189141D02*Y185841D01*
X253950Y188591D02*Y185841D01*
X254000Y189691D02*G75*G03X241850Y201841I-12150J0D01*G01*
X253950Y185841D02*G75*G02X241850Y185841I-6050J0D01*G01*
X253950Y188591D02*G75*G03X241850Y188591I-6050J0D01*G01*
X232840Y179956D02*X230296D01*
X232139Y187294D02*X225158D01*
X224961Y189691D02*Y179791D01*
X233211Y194641D02*X229911D01*
X224961Y189691D02*G75*G02X229911Y194641I4950J0D01*G01*
X236036Y191470D02*G75*G03X232944Y194561I-3092J0D01*G01*
X230296Y179956D02*G75*G02X224989Y181942I0J8085D01*G01*
X232139Y187294D02*G75*G02X233182Y179989I522J-3652D01*G01*
X233182Y179989D02*G75*G02X232840Y179956I-522J3652D01*G01*
X219461Y179797D02*Y194460D01*
X219279D02*X212492D01*
X212338Y187860D02*X219279D01*
X219461Y179791D02*X212311D01*
G75*G02X210589Y187085I0J3850D01*G01*
X212338Y187860D02*G75*G02X212307Y194460I0J3300D01*G01*
X190861Y189141D02*Y185841D01*
X202961Y188591D02*Y185291D01*
Y185841D02*G75*G02X190861Y185841I-6050J0D01*G01*
X202961Y188591D02*G75*G03X190861Y188591I-6050J0D01*G01*
X185361Y179797D02*Y194460D01*
X185179D02*X178392D01*
X178238Y187860D02*X185179D01*
X185361Y179791D02*X178211D01*
G75*G02X176489Y187085I0J3850D01*G01*
X178238Y187860D02*G75*G02X178207Y194460I0J3300D01*G01*
X168860Y194460D02*Y179797D01*
X157338Y194460D02*Y179797D01*
Y186941D02*X168860D01*
X148328Y179956D02*X145784D01*
X147627Y187294D02*X140646D01*
X140448Y189691D02*Y179791D01*
X148698Y194641D02*X145398D01*
X140448Y189691D02*G75*G02X145398Y194641I4950J0D01*G01*
X151524Y191470D02*G75*G03X148432Y194561I-3092J0D01*G01*
X145784Y179956D02*G75*G02X140477Y181942I0J8085D01*G01*
X147627Y187294D02*G75*G02X148670Y179989I522J-3652D01*G01*
X148670Y179989D02*G75*G02X148328Y179956I-522J3652D01*G01*
G54D40*X55861Y53150D02*Y54650D01*
X53661Y53150D02*Y55150D01*
X57661Y53150D02*X53661D01*
X57661D02*Y55150D01*
X53661Y59950D02*Y61950D01*
X54161Y62450D01*
X55361D02*X54161D01*
X55861Y61950D02*X55361Y62450D01*
X55861Y60450D02*Y61950D01*
X57661Y60450D02*X53661D01*
X57661Y59950D02*Y61950D01*
X57161Y62450D01*
X56361D01*
X55861Y61950D02*X56361Y62450D01*
X53661Y67950D02*Y69250D01*
X54361Y67250D02*X53661Y67950D01*
X56961Y67250D02*X54361D01*
X56961D02*X57661Y67950D01*
Y69250D01*
X62780Y56299D02*X58780D01*
X62780D02*X58780Y58799D01*
X62780D02*X58780D01*
X62780Y60499D02*X58780D01*
X62780Y59999D02*Y61999D01*
X62280Y62499D01*
X61280D01*
X60780Y61999D02*X61280Y62499D01*
X60780Y60499D02*Y61999D01*
X62780Y63699D02*X58780D01*
X62780D02*X58780Y66199D01*
X62780D02*X58780D01*
X91504Y12780D02*X91004Y12280D01*
X93004Y12780D02*X91504D01*
X93504Y12280D02*X93004Y12780D01*
X93504Y12280D02*Y9280D01*
X93004Y8780D01*
X91504D01*
X91004Y9280D01*
Y10280D02*Y9280D01*
X91504Y10780D02*X91004Y10280D01*
X92504Y10780D02*X91504D01*
X89804Y12780D02*Y8780D01*
Y12780D02*X87304Y8780D01*
Y12780D02*Y8780D01*
X85604Y12780D02*Y8780D01*
X84304Y12780D02*X83604Y12080D01*
Y9480D01*
X84304Y8780D02*X83604Y9480D01*
X86104Y8780D02*X84304D01*
X86104Y12780D02*X84304D01*
G54D42*X208098Y37796D02*Y35096D01*
Y37796D02*X207198Y38696D01*
X206298D01*
X205398Y37796D01*
Y35096D01*
Y37796D02*X204498Y38696D01*
X203598D01*
X202698Y37796D01*
Y35096D01*
X208998Y38696D02*X208098Y37796D01*
X197838Y38696D02*X196938Y37796D01*
X199638Y38696D02*X197838D01*
X200538Y37796D02*X199638Y38696D01*
X200538Y37796D02*Y35996D01*
X199638Y35096D01*
X196938Y38696D02*Y35996D01*
X196038Y35096D01*
X199638D02*X197838D01*
X196938Y35996D01*
X190278Y42296D02*Y35096D01*
X191178D02*X190278Y35996D01*
X192978Y35096D02*X191178D01*
X193878Y35996D02*X192978Y35096D01*
X193878Y37796D02*Y35996D01*
Y37796D02*X192978Y38696D01*
X191178D01*
X190278Y37796D01*
X187218Y35096D02*X184518D01*
X188118Y35996D02*X187218Y35096D01*
X188118Y37796D02*Y35996D01*
Y37796D02*X187218Y38696D01*
X185418D01*
X184518Y37796D01*
X188118Y36896D02*X184518D01*
Y37796D01*
X179118Y38696D02*Y35996D01*
X178218Y35096D01*
X177318D01*
X176418Y35996D01*
Y38696D02*Y35996D01*
X175518Y35096D01*
X174618D01*
X173718Y35996D01*
Y38696D02*Y35996D01*
G54D43*X171558Y40496D02*Y40316D01*
G54D42*Y37796D02*Y35096D01*
X168858Y42296D02*Y35996D01*
X167958Y35096D01*
X169758Y39596D02*X167958D01*
X166158Y42296D02*Y35096D01*
Y37796D02*X165258Y38696D01*
X163458D01*
X162558Y37796D01*
Y35096D01*
G54D40*X98004Y22969D02*Y18969D01*
X96704Y22969D02*X96004Y22269D01*
Y19669D01*
X96704Y18969D02*X96004Y19669D01*
X98504Y18969D02*X96704D01*
X98504Y22969D02*X96704D01*
X94104Y18969D02*X92804D01*
X94804Y19669D02*X94104Y18969D01*
X94804Y22269D02*Y19669D01*
Y22269D02*X94104Y22969D01*
X92804D01*
X91604Y18969D02*X89604D01*
X88404Y22969D02*X87404D01*
X87904D02*Y18969D01*
X88404D02*X87404D01*
X86204Y22969D02*Y18969D01*
Y22969D02*X83704Y18969D01*
Y22969D02*Y18969D01*
X387008Y186402D02*Y182402D01*
Y186402D02*X385294D01*
X384723Y186211D01*
X384532Y186021D01*
X384342Y185640D01*
Y185259D01*
X384532Y184878D01*
X384723Y184688D01*
X385294Y184497D01*
X387008D01*
X385675D02*X384342Y182402D01*
X383142Y185641D02*X382762Y185831D01*
X382190Y186402D01*
Y182402D01*
X378809Y182511D02*X378999Y182322D01*
X379190Y182511D01*
X378999Y182702D01*
X378809Y182511D01*
Y182131D01*
X379190Y181750D01*
X377609Y186402D02*Y182402D01*
Y186402D02*X375895D01*
X375324Y186211D01*
X375133Y186021D01*
X374943Y185640D01*
Y185259D01*
X375133Y184878D01*
X375324Y184688D01*
X375895Y184497D01*
X377609D01*
X376276D02*X374943Y182402D01*
X373553Y185450D02*Y185641D01*
X373362Y186021D01*
X373173Y186212D01*
X372791Y186402D01*
X372030D01*
X371648Y186212D01*
X371458Y186021D01*
X371268Y185641D01*
Y185259D01*
X371458Y184878D01*
X371839Y184307D01*
X373743Y182402D01*
X371077D01*
X366173Y186402D02*X368077Y183736D01*
X365221D01*
X366173Y186402D02*Y182402D01*
X364021Y186402D02*Y182402D01*
X362117Y185069D02*X364021Y183164D01*
X363260Y183927D02*X361926Y182402D01*
X358060Y186402D02*X359965Y182402D01*
X360726Y186402D02*X358060D01*
G54D41*X336503Y367591D02*X338218Y369306D01*
X340787Y370165D01*
X344216D01*
X346790Y369306D01*
X348500Y367591D01*
Y365881D01*
X347650Y364162D01*
X346790Y363307D01*
X345071Y362452D01*
X339928Y360738D01*
X338218Y359878D01*
X337362Y359023D01*
X336503Y357309D01*
Y354735D01*
X338218Y353025D01*
X340787Y352165D01*
X344216D01*
X346790Y353025D01*
X348500Y354735D01*
X325104Y370165D02*Y352165D01*
X331103Y370165D02*X319106D01*
X313706D02*Y352165D01*
Y370165D02*X302564D01*
X313706Y361593D02*X306852D01*
X313706Y352165D02*X302564D01*
X297164Y370165D02*Y352165D01*
Y370165D02*X290310Y352165D01*
X283448Y370165D02*X290310Y352165D01*
X283448Y370165D02*Y352165D01*
X269480Y370165D02*X278048Y358168D01*
X265196D01*
X269480Y370165D02*Y352165D01*
X259796Y364167D02*Y355599D01*
X258941Y353029D01*
X257222Y352170D01*
X254652D01*
X252938Y353029D01*
X250368Y355599D01*
Y364167D02*Y352170D01*
X244968Y370165D02*Y352165D01*
X236400Y364167D02*X244968Y355594D01*
X241544Y359028D02*X235541Y352165D01*
X230141Y364167D02*Y352170D01*
Y359023D02*X229286Y361602D01*
X227567Y363312D01*
X225857Y364167D01*
X223283D01*
X207596D02*Y352170D01*
Y361602D02*X209315Y363316D01*
X211025Y364167D01*
X213599D01*
X215309Y363316D01*
X217028Y361602D01*
X217883Y359032D01*
Y357313D01*
X217028Y354744D01*
X215309Y353029D01*
X213599Y352170D01*
X211025D01*
X209315Y353029D01*
X207596Y354744D01*
X201341Y364207D02*Y352210D01*
X202196Y370210D02*X201341Y369351D01*
X200481Y370210D01*
X201341Y371065D01*
X202196Y370210D01*
X195081Y364167D02*Y352170D01*
Y360742D02*X192507Y363316D01*
X190797Y364167D01*
X188223D01*
X186513Y363316D01*
X185654Y360742D01*
Y352170D01*
X180254Y359032D02*X169976D01*
Y360742D01*
X170831Y362457D01*
X171686Y363316D01*
X173400Y364167D01*
X175970D01*
X177689Y363316D01*
X179403Y361602D01*
X180254Y359032D01*
Y357313D01*
X179403Y354744D01*
X177689Y353029D01*
X175970Y352170D01*
X173400D01*
X171686Y353029D01*
X169976Y354744D01*
X164576Y361165D02*X153326D01*
X147926Y370165D02*Y352165D01*
Y370165D02*X140213D01*
X137643Y369306D01*
X136784Y368451D01*
X135929Y366732D01*
Y365022D01*
X136784Y363307D01*
X137643Y362448D01*
X140213Y361593D01*
X147926D02*X140213D01*
X137643Y360738D01*
X136784Y359878D01*
X135929Y358164D01*
Y355594D01*
X136784Y353875D01*
X137643Y353025D01*
X140213Y352165D01*
X147926D01*
X120242Y364167D02*Y352170D01*
Y361602D02*X121961Y363316D01*
X123671Y364167D01*
X126245D01*
X127955Y363316D01*
X129674Y361602D01*
X130529Y359032D01*
Y357313D01*
X129674Y354744D01*
X127955Y353029D01*
X126245Y352170D01*
X123671D01*
X121961Y353029D01*
X120242Y354744D01*
X114842Y364167D02*X109703Y352170D01*
X104564Y364167D02*X109703Y352170D01*
X94880Y364167D02*X96599Y363316D01*
X98313Y361602D01*
X99164Y359032D01*
Y357313D01*
X98313Y354744D01*
X96599Y353029D01*
X94880Y352170D01*
X92310D01*
X90596Y353029D01*
X88886Y354744D01*
X88026Y357313D01*
Y359032D01*
X88886Y361602D01*
X90596Y363316D01*
X92310Y364167D01*
X94880D01*
X82626D02*X77487Y352170D01*
X72348Y364167D02*X77487Y352170D01*
X66948Y364167D02*Y352170D01*
Y360742D02*X64374Y363316D01*
X62664Y364167D01*
X60090D01*
X58380Y363316D01*
X57521Y360742D01*
Y352170D01*
X41834Y364167D02*Y352170D01*
Y361602D02*X43553Y363316D01*
X45263Y364167D01*
X47837D01*
X49547Y363316D01*
X51266Y361602D01*
X52121Y359032D01*
Y357313D01*
X51266Y354744D01*
X49547Y353029D01*
X47837Y352170D01*
X45263D01*
X43553Y353029D01*
X41834Y354744D01*
X208107Y324797D02*X202968Y312800D01*
X197829Y324797D02*X202968Y312800D01*
X192429Y327371D02*X190719Y328226D01*
X188145Y330795D01*
Y312795D01*
G54D40*X126064Y234425D02*Y230425D01*
X124064D01*
X122864Y232625D02*X121364D01*
X122864Y230425D02*X120864D01*
X122864Y234425D02*Y230425D01*
Y234425D02*X120864D01*
X119164D02*Y230425D01*
X117864Y234425D02*X117164Y233725D01*
Y231125D01*
X117864Y230425D02*X117164Y231125D01*
X119664Y230425D02*X117864D01*
X119664Y234425D02*X117864D01*
X115964Y233625D02*X115164Y234425D01*
Y230425D01*
X115964D02*X114464D01*
X286417Y236402D02*Y232402D01*
X284417D01*
X283217Y234602D02*X281717D01*
X283217Y232402D02*X281217D01*
X283217Y236402D02*Y232402D01*
Y236402D02*X281217D01*
X279517D02*Y232402D01*
X278217Y236402D02*X277517Y235702D01*
Y233102D01*
X278217Y232402D02*X277517Y233102D01*
X280017Y232402D02*X278217D01*
X280017Y236402D02*X278217D01*
X276317Y235902D02*X275817Y236402D01*
X274317D01*
X273817Y235902D01*
Y234902D01*
X276317Y232402D02*X273817Y234902D01*
X276317Y232402D02*X273817D01*
X387008Y180102D02*Y176102D01*
Y180102D02*X385294D01*
X384723Y179911D01*
X384532Y179721D01*
X384342Y179340D01*
Y178959D01*
X384532Y178578D01*
X384723Y178388D01*
X385294Y178197D01*
X387008D01*
X385675D02*X384342Y176102D01*
X382762Y180102D02*X380667D01*
X381810Y178578D01*
X381238D01*
X380858Y178389D01*
X380667Y178198D01*
X380476Y177626D01*
Y177246D01*
X380667Y176674D01*
X381047Y176293D01*
X381619Y176102D01*
X382190D01*
X382762Y176293D01*
X382952Y176484D01*
X383142Y176864D01*
X366572Y180102D02*X368476Y177436D01*
X365620D01*
X366572Y180102D02*Y176102D01*
X361754Y180102D02*X363659Y176102D01*
X364420Y180102D02*X361754D01*
X360554D02*Y176102D01*
X358650Y178769D02*X360554Y176864D01*
X359793Y177627D02*X358459Y176102D01*
X387008Y173803D02*Y169803D01*
Y173803D02*X385294D01*
X384723Y173612D01*
X384532Y173422D01*
X384342Y173041D01*
Y172660D01*
X384532Y172279D01*
X384723Y172089D01*
X385294Y171898D01*
X387008D01*
X385675D02*X384342Y169803D01*
X381238Y173803D02*X383142Y171137D01*
X380286D01*
X381238Y173803D02*Y169803D01*
X368286Y173042D02*X367906Y173232D01*
X367334Y173803D01*
Y169803D01*
X364991Y173803D02*X365562Y173613D01*
X365944Y173042D01*
X366134Y172090D01*
Y171518D01*
X365944Y170565D01*
X365562Y169994D01*
X364991Y169803D01*
X364610D01*
X364039Y169994D01*
X363658Y170565D01*
X363467Y171518D01*
Y172090D01*
X363658Y173042D01*
X364039Y173613D01*
X364610Y173803D01*
X364991D01*
X361124D02*X361695Y173613D01*
X362077Y173042D01*
X362267Y172090D01*
Y171518D01*
X362077Y170565D01*
X361695Y169994D01*
X361124Y169803D01*
X360743D01*
X360172Y169994D01*
X359791Y170565D01*
X359600Y171518D01*
Y172090D01*
X359791Y173042D01*
X360172Y173613D01*
X360743Y173803D01*
X361124D01*
X358400D02*Y169803D01*
X356496Y172470D02*X358400Y170565D01*
X357639Y171328D02*X356305Y169803D01*
X387008Y167504D02*Y163504D01*
Y167504D02*X385294D01*
X384723Y167313D01*
X384532Y167123D01*
X384342Y166742D01*
Y166361D01*
X384532Y165980D01*
X384723Y165790D01*
X385294Y165599D01*
X387008D01*
X385675D02*X384342Y163504D01*
X380856Y167504D02*X382761D01*
X382952Y165791D01*
X382761Y165980D01*
X382190Y166171D01*
X381618D01*
X381047Y165980D01*
X380666Y165600D01*
X380475Y165028D01*
Y164648D01*
X380666Y164076D01*
X381047Y163695D01*
X381618Y163504D01*
X382190D01*
X382761Y163695D01*
X382952Y163886D01*
X383142Y164266D01*
X378894Y163613D02*X379084Y163424D01*
X379275Y163613D01*
X379084Y163804D01*
X378894Y163613D01*
Y163233D01*
X379275Y162852D01*
X377694Y167504D02*Y163504D01*
Y167504D02*X375980D01*
X375409Y167313D01*
X375218Y167123D01*
X375028Y166742D01*
Y166361D01*
X375218Y165980D01*
X375409Y165790D01*
X375980Y165599D01*
X377694D01*
X376361D02*X375028Y163504D01*
X371543Y166933D02*X371733Y167314D01*
X372305Y167504D01*
X372685D01*
X373258Y167314D01*
X373638Y166743D01*
X373828Y165791D01*
Y164838D01*
X373638Y164076D01*
X373258Y163695D01*
X372685Y163504D01*
X372495D01*
X371924Y163695D01*
X371543Y164076D01*
X371353Y164648D01*
Y164838D01*
X371543Y165409D01*
X371924Y165791D01*
X372495Y165980D01*
X372685D01*
X373258Y165791D01*
X373638Y165409D01*
X373828Y164838D01*
X368353Y166743D02*X367973Y166933D01*
X367401Y167504D01*
Y163504D01*
X366011Y166552D02*Y166743D01*
X365820Y167123D01*
X365631Y167314D01*
X365249Y167504D01*
X364488D01*
X364106Y167314D01*
X363916Y167123D01*
X363726Y166743D01*
Y166361D01*
X363916Y165980D01*
X364297Y165409D01*
X366201Y163504D01*
X363535D01*
X361192Y167504D02*X361763Y167314D01*
X362145Y166743D01*
X362335Y165791D01*
Y165219D01*
X362145Y164266D01*
X361763Y163695D01*
X361192Y163504D01*
X360811D01*
X360240Y163695D01*
X359859Y164266D01*
X359668Y165219D01*
Y165791D01*
X359859Y166743D01*
X360240Y167314D01*
X360811Y167504D01*
X361192D01*
X358468D02*Y163504D01*
Y167504D02*X356754D01*
X356183Y167313D01*
X355992Y167123D01*
X355802Y166742D01*
Y166361D01*
X355992Y165980D01*
X356183Y165790D01*
X356754Y165599D01*
X358468D01*
X357135D02*X355802Y163504D01*
X384151Y160253D02*X384342Y160633D01*
X384723Y161014D01*
X385103Y161205D01*
X385866D01*
X386246Y161014D01*
X386628Y160633D01*
X386818Y160253D01*
X387008Y159681D01*
Y158728D01*
X386818Y158157D01*
X386628Y157776D01*
X386246Y157396D01*
X385866Y157205D01*
X385103D01*
X384723Y157396D01*
X384342Y157776D01*
X384151Y158157D01*
X382951Y160444D02*X382571Y160634D01*
X381999Y161205D01*
Y157205D01*
X368199Y160444D02*X367819Y160634D01*
X367247Y161205D01*
Y157205D01*
X364904Y161205D02*X365475Y161015D01*
X365857Y160444D01*
X366047Y159492D01*
Y158920D01*
X365857Y157967D01*
X365475Y157396D01*
X364904Y157205D01*
X364523D01*
X363952Y157396D01*
X363571Y157967D01*
X363380Y158920D01*
Y159492D01*
X363571Y160444D01*
X363952Y161015D01*
X364523Y161205D01*
X364904D01*
X361037D02*X361608Y161015D01*
X361990Y160444D01*
X362180Y159492D01*
Y158920D01*
X361990Y157967D01*
X361608Y157396D01*
X361037Y157205D01*
X360656D01*
X360085Y157396D01*
X359704Y157967D01*
X359513Y158920D01*
Y159492D01*
X359704Y160444D01*
X360085Y161015D01*
X360656Y161205D01*
X361037D01*
X358313Y159872D02*Y157206D01*
Y159111D02*X357741Y159683D01*
X357361Y159872D01*
X356789D01*
X356409Y159683D01*
X356218Y159111D01*
Y157206D01*
X384151Y153954D02*X384342Y154334D01*
X384723Y154715D01*
X385103Y154906D01*
X385866D01*
X386246Y154715D01*
X386628Y154334D01*
X386818Y153954D01*
X387008Y153382D01*
Y152429D01*
X386818Y151858D01*
X386628Y151477D01*
X386246Y151097D01*
X385866Y150906D01*
X385103D01*
X384723Y151097D01*
X384342Y151477D01*
X384151Y151858D01*
X382761Y153954D02*Y154145D01*
X382570Y154525D01*
X382381Y154716D01*
X381999Y154906D01*
X381238D01*
X380856Y154716D01*
X380666Y154525D01*
X380476Y154145D01*
Y153763D01*
X380666Y153382D01*
X381047Y152811D01*
X382951Y150906D01*
X380285D01*
X368095Y153954D02*Y154145D01*
X367904Y154525D01*
X367715Y154716D01*
X367333Y154906D01*
X366572D01*
X366190Y154716D01*
X366000Y154525D01*
X365810Y154145D01*
Y153763D01*
X366000Y153382D01*
X366381Y152811D01*
X368285Y150906D01*
X365619D01*
X364229Y153954D02*Y154145D01*
X364038Y154525D01*
X363849Y154716D01*
X363467Y154906D01*
X362706D01*
X362324Y154716D01*
X362134Y154525D01*
X361944Y154145D01*
Y153763D01*
X362134Y153382D01*
X362515Y152811D01*
X364419Y150906D01*
X361753D01*
X359410Y154906D02*X359981Y154716D01*
X360363Y154145D01*
X360553Y153193D01*
Y152621D01*
X360363Y151668D01*
X359981Y151097D01*
X359410Y150906D01*
X359029D01*
X358458Y151097D01*
X358077Y151668D01*
X357886Y152621D01*
Y153193D01*
X358077Y154145D01*
X358458Y154716D01*
X359029Y154906D01*
X359410D01*
X356686Y153573D02*Y151669D01*
X356496Y151098D01*
X356114Y150907D01*
X355543D01*
X355162Y151098D01*
X354591Y151669D01*
Y153573D02*Y150907D01*
X385866Y148606D02*X386246Y148415D01*
X386628Y148034D01*
X386818Y147654D01*
X387008Y147082D01*
Y146130D01*
X386818Y145558D01*
X386628Y145177D01*
X386246Y144797D01*
X385866Y144606D01*
X385103D01*
X384723Y144797D01*
X384342Y145177D01*
X384151Y145558D01*
X383961Y146130D01*
Y147082D01*
X384151Y147654D01*
X384342Y148034D01*
X384723Y148415D01*
X385103Y148606D01*
X385866D01*
X385294Y145368D02*X384151Y144225D01*
X382761Y147845D02*X382381Y148035D01*
X381809Y148606D01*
Y144606D01*
X368009Y148606D02*Y144606D01*
Y148606D02*X366295D01*
X365724Y148415D01*
X365533Y148225D01*
X365343Y147844D01*
Y147272D01*
X365533Y146892D01*
X365724Y146701D01*
X366295Y146511D01*
X368009D01*
X364143Y148606D02*Y144606D01*
Y148606D02*X361477Y144606D01*
Y148606D02*Y144606D01*
X360277Y148606D02*Y144606D01*
Y148606D02*X358563D01*
X357992Y148415D01*
X357801Y148225D01*
X357611Y147844D01*
Y147272D01*
X357801Y146892D01*
X357992Y146701D01*
X358563Y146511D01*
X360277D01*
X385866Y142307D02*X386246Y142116D01*
X386628Y141735D01*
X386818Y141355D01*
X387008Y140783D01*
Y139831D01*
X386818Y139259D01*
X386628Y138878D01*
X386246Y138498D01*
X385866Y138307D01*
X385103D01*
X384723Y138498D01*
X384342Y138878D01*
X384151Y139259D01*
X383961Y139831D01*
Y140783D01*
X384151Y141355D01*
X384342Y141735D01*
X384723Y142116D01*
X385103Y142307D01*
X385866D01*
X385294Y139069D02*X384151Y137926D01*
X382571Y141355D02*Y141546D01*
X382380Y141926D01*
X382191Y142117D01*
X381809Y142307D01*
X381048D01*
X380666Y142117D01*
X380476Y141926D01*
X380286Y141546D01*
Y141164D01*
X380476Y140783D01*
X380857Y140212D01*
X382761Y138307D01*
X380095D01*
X378514Y138416D02*X378704Y138227D01*
X378895Y138416D01*
X378704Y138607D01*
X378514Y138416D01*
Y138036D01*
X378895Y137655D01*
X376172Y142307D02*X376552Y142116D01*
X376934Y141735D01*
X377124Y141355D01*
X377314Y140783D01*
Y139831D01*
X377124Y139259D01*
X376934Y138878D01*
X376552Y138498D01*
X376172Y138307D01*
X375409D01*
X375029Y138498D01*
X374648Y138878D01*
X374457Y139259D01*
X374267Y139831D01*
Y140783D01*
X374457Y141355D01*
X374648Y141735D01*
X375029Y142116D01*
X375409Y142307D01*
X376172D01*
X375600Y139069D02*X374457Y137926D01*
X372687Y142307D02*X370592D01*
X371735Y140783D01*
X371163D01*
X370783Y140594D01*
X370592Y140403D01*
X370401Y139831D01*
Y139451D01*
X370592Y138879D01*
X370972Y138498D01*
X371544Y138307D01*
X372115D01*
X372687Y138498D01*
X372877Y138689D01*
X373067Y139069D01*
X367401Y142307D02*Y138307D01*
Y142307D02*X364735Y138307D01*
Y142307D02*Y138307D01*
X363535Y142307D02*Y138307D01*
Y142307D02*X361821D01*
X361250Y142116D01*
X361059Y141926D01*
X360869Y141545D01*
Y140973D01*
X361059Y140593D01*
X361250Y140402D01*
X361821Y140212D01*
X363535D01*
X359669Y142307D02*Y138307D01*
Y142307D02*X357003Y138307D01*
Y142307D02*Y138307D01*
X387008Y136008D02*Y133151D01*
X386817Y132579D01*
X386437Y132199D01*
X385865Y132008D01*
X385485D01*
X384913Y132199D01*
X384532Y132579D01*
X384342Y133151D01*
Y136008D01*
X383142Y135247D02*X382762Y135437D01*
X382190Y136008D01*
Y132008D01*
X368390Y136008D02*Y132008D01*
X366105D01*
X364905Y136008D02*Y132008D01*
Y136008D02*X363382Y132008D01*
X361857Y136008D02*X363382Y132008D01*
X361857Y136008D02*Y132008D01*
X358371Y136008D02*X360276D01*
X360467Y134295D01*
X360276Y134484D01*
X359705Y134675D01*
X359133D01*
X358562Y134484D01*
X358181Y134104D01*
X357990Y133532D01*
Y133152D01*
X358181Y132580D01*
X358562Y132199D01*
X359133Y132008D01*
X359705D01*
X360276Y132199D01*
X360467Y132390D01*
X360657Y132770D01*
X354504Y136008D02*X356409D01*
X356600Y134295D01*
X356409Y134484D01*
X355838Y134675D01*
X355266D01*
X354695Y134484D01*
X354314Y134104D01*
X354123Y133532D01*
Y133152D01*
X354314Y132580D01*
X354695Y132199D01*
X355266Y132008D01*
X355838D01*
X356409Y132199D01*
X356600Y132390D01*
X356790Y132770D01*
X350637Y136008D02*X352542D01*
X352733Y134295D01*
X352542Y134484D01*
X351971Y134675D01*
X351399D01*
X350828Y134484D01*
X350447Y134104D01*
X350256Y133532D01*
Y133152D01*
X350447Y132580D01*
X350828Y132199D01*
X351399Y132008D01*
X351971D01*
X352542Y132199D01*
X352733Y132390D01*
X352923Y132770D01*
X387008Y129709D02*Y125709D01*
X384723D01*
X383523Y129709D02*Y125709D01*
Y129709D02*X381047D01*
X383523Y127804D02*X382000D01*
X383523Y125709D02*X381047D01*
X379847Y129709D02*Y125709D01*
Y129709D02*X378513D01*
X377942Y129518D01*
X377561Y129137D01*
X377371Y128757D01*
X377181Y128185D01*
Y127232D01*
X377371Y126661D01*
X377561Y126280D01*
X377942Y125900D01*
X378513Y125709D01*
X379847D01*
X373887Y127806D02*X374077Y128186D01*
X374649Y128376D01*
X375220D01*
X375792Y128186D01*
X375981Y127806D01*
X375792Y127424D01*
X375411Y127233D01*
X374458Y127043D01*
X374077Y126853D01*
X373887Y126472D01*
Y126281D01*
X374077Y125901D01*
X374649Y125710D01*
X375220D01*
X375792Y125901D01*
X375981Y126281D01*
X368707Y129709D02*X366612D01*
X367755Y128185D01*
X367183D01*
X366803Y127996D01*
X366612Y127805D01*
X366421Y127233D01*
Y126853D01*
X366612Y126281D01*
X366992Y125900D01*
X367564Y125709D01*
X368135D01*
X368707Y125900D01*
X368897Y126091D01*
X369087Y126471D01*
X365221Y128376D02*Y125710D01*
Y127615D02*X364651Y128187D01*
X364269Y128376D01*
X363698D01*
X363317Y128187D01*
X363127Y127615D01*
Y125710D01*
Y127615D02*X362555Y128187D01*
X362175Y128376D01*
X361603D01*
X361223Y128187D01*
X361032Y127615D01*
Y125710D01*
X359832Y128376D02*Y125710D01*
Y127615D02*X359262Y128187D01*
X358880Y128376D01*
X358309D01*
X357928Y128187D01*
X357738Y127615D01*
Y125710D01*
Y127615D02*X357166Y128187D01*
X356786Y128376D01*
X356214D01*
X355834Y128187D01*
X355643Y127615D01*
Y125710D01*
X342035Y7858D02*X341535Y7358D01*
X343535Y7858D02*X342035D01*
X344035Y7358D02*X343535Y7858D01*
X344035Y7358D02*Y4358D01*
X343535Y3858D01*
X342035D01*
X341535Y4358D01*
Y5358D02*Y4358D01*
X342035Y5858D02*X341535Y5358D01*
X343035Y5858D02*X342035D01*
X340335Y7858D02*Y3858D01*
Y7858D02*X337835Y3858D01*
Y7858D02*Y3858D01*
X336135Y7858D02*Y3858D01*
X334835Y7858D02*X334135Y7158D01*
Y4558D01*
X334835Y3858D02*X334135Y4558D01*
X336635Y3858D02*X334835D01*
X336635Y7858D02*X334835D01*
X342067Y34433D02*X341067Y30433D01*
X340067Y34433D01*
X338367Y32433D02*X336867D01*
X338867Y31933D02*X338367Y32433D01*
X338867Y31933D02*Y30933D01*
X338367Y30433D01*
X336867D01*
X335167Y32433D02*X333667D01*
X335667Y31933D02*X335167Y32433D01*
X335667Y31933D02*Y30933D01*
X335167Y30433D01*
X333667D01*
X377205Y41126D02*Y37626D01*
X376705Y37126D01*
X375705D01*
X375205Y37626D01*
Y41126D02*Y37626D01*
X372005Y41126D02*X371505Y40626D01*
X373505Y41126D02*X372005D01*
X374005Y40626D02*X373505Y41126D01*
X374005Y40626D02*Y39626D01*
X373505Y39126D01*
X372005D01*
X371505Y38626D01*
Y37626D01*
X372005Y37126D02*X371505Y37626D01*
X373505Y37126D02*X372005D01*
X374005Y37626D02*X373505Y37126D01*
X370305D02*X368305D01*
X367805Y37626D01*
Y38826D02*Y37626D01*
X368305Y39326D02*X367805Y38826D01*
X369805Y39326D02*X368305D01*
X369805Y41126D02*Y37126D01*
X370305Y41126D02*X368305D01*
X367805Y40626D01*
Y39826D01*
X368305Y39326D02*X367805Y39826D01*
X364805Y37126D02*X362805D01*
X362305Y37626D01*
Y38826D02*Y37626D01*
X362805Y39326D02*X362305Y38826D01*
X364305Y39326D02*X362805D01*
X364305Y41126D02*Y37126D01*
X364805Y41126D02*X362805D01*
X362305Y40626D01*
Y39826D01*
X362805Y39326D02*X362305Y39826D01*
X359305Y39126D02*X358305Y37126D01*
X357305Y39126D02*X358305Y37126D01*
X355605D02*X354105D01*
X356105Y37626D02*X355605Y37126D01*
X356105Y38626D02*Y37626D01*
Y38626D02*X355605Y39126D01*
X354605D01*
X354105Y38626D01*
X356105Y38126D02*X354105D01*
Y38626D01*
X352405D02*Y37126D01*
Y38626D02*X351905Y39126D01*
X350905D01*
X352905D02*X352405Y38626D01*
X349205Y41126D02*Y37626D01*
X348705Y37126D01*
X349705Y39626D02*X348705D01*
X347705Y40126D02*Y40026D01*
Y38626D02*Y37126D01*
X346205Y39126D02*X344705D01*
X346705Y38626D02*X346205Y39126D01*
X346705Y38626D02*Y37626D01*
X346205Y37126D01*
X344705D01*
X342005Y39126D02*X341505Y38626D01*
X343005Y39126D02*X342005D01*
X343505Y38626D02*X343005Y39126D01*
X343505Y38626D02*Y37626D01*
X343005Y37126D01*
X341505Y39126D02*Y37626D01*
X341005Y37126D01*
X343005D02*X342005D01*
X341505Y37626D01*
X339805Y41126D02*Y37626D01*
X339305Y37126D01*
X390972Y41185D02*Y37685D01*
X390472Y37185D01*
X389472D01*
X388972Y37685D01*
Y41185D02*Y37685D01*
X385772Y41185D02*X385272Y40685D01*
X387272Y41185D02*X385772D01*
X387772Y40685D02*X387272Y41185D01*
X387772Y40685D02*Y39685D01*
X387272Y39185D01*
X385772D01*
X385272Y38685D01*
Y37685D01*
X385772Y37185D02*X385272Y37685D01*
X387272Y37185D02*X385772D01*
X387772Y37685D02*X387272Y37185D01*
X384072D02*X382072D01*
X381572Y37685D01*
Y38885D02*Y37685D01*
X382072Y39385D02*X381572Y38885D01*
X383572Y39385D02*X382072D01*
X383572Y41185D02*Y37185D01*
X384072Y41185D02*X382072D01*
X381572Y40685D01*
Y39885D01*
X382072Y39385D02*X381572Y39885D01*
X381300Y51201D02*X380000D01*
X382000Y51901D02*X381300Y51201D01*
X382000Y54501D02*Y51901D01*
Y54501D02*X381300Y55201D01*
X380000D01*
X378800Y54401D02*X378000Y55201D01*
Y51201D01*
X378800D02*X377300D01*
X292410Y37354D02*X291110D01*
X293110Y38054D02*X292410Y37354D01*
X293110Y40654D02*Y38054D01*
Y40654D02*X292410Y41354D01*
X291110D01*
X289910Y40854D02*X289410Y41354D01*
X287910D01*
X287410Y40854D01*
Y39854D01*
X289910Y37354D02*X287410Y39854D01*
X289910Y37354D02*X287410D01*
X334469Y62898D02*Y64898D01*
X333969Y65398D01*
X332969D01*
X332469Y64898D02*X332969Y65398D01*
X332469Y63398D02*Y64898D01*
X334469Y63398D02*X330469D01*
X332469Y64198D02*X330469Y65398D01*
X333669Y66598D02*X334469Y67398D01*
X330469D01*
Y66598D02*Y68098D01*
X319500Y62701D02*Y64701D01*
X319000Y65201D01*
X318000D01*
X317500Y64701D02*X318000Y65201D01*
X317500Y63201D02*Y64701D01*
X319500Y63201D02*X315500D01*
X317500Y64001D02*X315500Y65201D01*
X317000Y66401D02*X319500Y68401D01*
X317000Y66401D02*Y68901D01*
X319500Y68401D02*X315500D01*
X343000Y98701D02*Y95201D01*
X342500Y94701D01*
X341500D01*
X341000Y95201D01*
Y98701D02*Y95201D01*
X339800Y97901D02*X339000Y98701D01*
Y94701D01*
X339800D02*X338300D01*
X371000Y108201D02*X369000D01*
X368500Y107701D01*
Y106701D01*
X369000Y106201D02*X368500Y106701D01*
X370500Y106201D02*X369000D01*
X370500Y108201D02*Y104201D01*
X369700Y106201D02*X368500Y104201D01*
X367300Y107701D02*X366800Y108201D01*
X365300D01*
X364800Y107701D01*
Y106701D01*
X367300Y104201D02*X364800Y106701D01*
X367300Y104201D02*X364800D01*
X371000Y118201D02*X369000D01*
X368500Y117701D01*
Y116701D01*
X369000Y116201D02*X368500Y116701D01*
X370500Y116201D02*X369000D01*
X370500Y118201D02*Y114201D01*
X369700Y116201D02*X368500Y114201D01*
X367300Y117701D02*X366800Y118201D01*
X365800D01*
X365300Y117701D01*
X365800Y114201D02*X365300Y114701D01*
X366800Y114201D02*X365800D01*
X367300Y114701D02*X366800Y114201D01*
Y116401D02*X365800D01*
X365300Y117701D02*Y116901D01*
Y115901D02*Y114701D01*
Y115901D02*X365800Y116401D01*
X365300Y116901D02*X365800Y116401D01*
M02*
